<mxfile host="www.draw.io" modified="2019-11-06T10:19:58.592Z" agent="Mozilla/5.0 (Windows NT 10.0; WOW64) AppleWebKit/537.36 (KHTML, like Gecko) Chrome/77.0.3865.120 Safari/537.36" etag="EVxKNIIgNmQeD-ZyfMq1" version="12.2.0" type="github" pages="1">
  <diagram name="Page-1" id="74b105a0-9070-1c63-61bc-23e55f88626e">
    <mxGraphModel dx="1730" dy="927" grid="1" gridSize="10" guides="1" tooltips="1" connect="1" arrows="1" fold="1" page="1" pageScale="1.5" pageWidth="1169" pageHeight="826" background="none" math="0" shadow="0">
      <root>
        <mxCell id="0" style=";html=1;"/>
        <mxCell id="1" style=";html=1;" parent="0"/>
        <mxCell id="10b056a9c633e61c-30" value="Title" style="text;strokeColor=none;fillColor=none;html=1;fontSize=24;fontStyle=1;verticalAlign=middle;align=center;" parent="1" vertex="1">
          <mxGeometry x="80" y="40" width="1590" height="40" as="geometry"/>
        </mxCell>
        <mxCell id="Sy0Z3MCGxMU9jSkr3YvO-5" value="" style="edgeStyle=orthogonalEdgeStyle;rounded=0;orthogonalLoop=1;jettySize=auto;html=1;fillColor=#fad7ac;strokeColor=#b46504;fontFamily=Helvetica;fontSize=18;" parent="1" source="Sy0Z3MCGxMU9jSkr3YvO-3" target="Sy0Z3MCGxMU9jSkr3YvO-4" edge="1">
          <mxGeometry relative="1" as="geometry"/>
        </mxCell>
        <mxCell id="Sy0Z3MCGxMU9jSkr3YvO-3" value="取数" style="rounded=0;whiteSpace=wrap;html=1;fillColor=#fad7ac;strokeColor=#b46504;fontFamily=Helvetica;fontSize=18;" parent="1" vertex="1">
          <mxGeometry x="840" y="330" width="120" height="60" as="geometry"/>
        </mxCell>
        <mxCell id="Sy0Z3MCGxMU9jSkr3YvO-4" value="任务" style="rounded=0;whiteSpace=wrap;html=1;fillColor=#fad7ac;strokeColor=#b46504;fontFamily=Helvetica;fontSize=18;" parent="1" vertex="1">
          <mxGeometry x="840" y="470" width="120" height="60" as="geometry"/>
        </mxCell>
        <mxCell id="Sy0Z3MCGxMU9jSkr3YvO-6" value="销项数据查询" style="rounded=0;whiteSpace=wrap;html=1;fillColor=#b1ddf0;strokeColor=#10739e;fontFamily=Helvetica;fontSize=18;" parent="1" vertex="1">
          <mxGeometry x="480" y="601" width="120" height="60" as="geometry"/>
        </mxCell>
        <mxCell id="Sy0Z3MCGxMU9jSkr3YvO-7" value="分包数据" style="rounded=0;whiteSpace=wrap;html=1;fillColor=#b1ddf0;strokeColor=#10739e;fontFamily=Helvetica;fontSize=18;" parent="1" vertex="1">
          <mxGeometry x="660" y="601" width="120" height="60" as="geometry"/>
        </mxCell>
        <mxCell id="Sy0Z3MCGxMU9jSkr3YvO-8" value="进项数据" style="rounded=0;whiteSpace=wrap;html=1;fillColor=#b1ddf0;strokeColor=#10739e;fontFamily=Helvetica;fontSize=18;" parent="1" vertex="1">
          <mxGeometry x="840" y="601" width="120" height="60" as="geometry"/>
        </mxCell>
        <mxCell id="Sy0Z3MCGxMU9jSkr3YvO-9" value="进项转出" style="rounded=0;whiteSpace=wrap;html=1;fillColor=#b1ddf0;strokeColor=#10739e;fontFamily=Helvetica;fontSize=18;" parent="1" vertex="1">
          <mxGeometry x="1020" y="600" width="120" height="61" as="geometry"/>
        </mxCell>
        <mxCell id="Sy0Z3MCGxMU9jSkr3YvO-10" value="预交数据" style="rounded=0;whiteSpace=wrap;html=1;fillColor=#b1ddf0;strokeColor=#10739e;fontFamily=Helvetica;fontSize=18;" parent="1" vertex="1">
          <mxGeometry x="1200" y="600" width="120" height="60" as="geometry"/>
        </mxCell>
        <mxCell id="Sy0Z3MCGxMU9jSkr3YvO-12" value="" style="endArrow=classic;html=1;entryX=0.5;entryY=0;entryDx=0;entryDy=0;fontFamily=Helvetica;fontSize=18;" parent="1" source="Sy0Z3MCGxMU9jSkr3YvO-4" target="Sy0Z3MCGxMU9jSkr3YvO-6" edge="1">
          <mxGeometry width="50" height="50" relative="1" as="geometry">
            <mxPoint x="290" y="720" as="sourcePoint"/>
            <mxPoint x="340" y="670" as="targetPoint"/>
          </mxGeometry>
        </mxCell>
        <mxCell id="Sy0Z3MCGxMU9jSkr3YvO-15" value="" style="endArrow=classic;html=1;fontFamily=Helvetica;fontSize=18;" parent="1" source="Sy0Z3MCGxMU9jSkr3YvO-4" target="Sy0Z3MCGxMU9jSkr3YvO-7" edge="1">
          <mxGeometry width="50" height="50" relative="1" as="geometry">
            <mxPoint x="850" y="522" as="sourcePoint"/>
            <mxPoint x="460" y="600" as="targetPoint"/>
          </mxGeometry>
        </mxCell>
        <mxCell id="Sy0Z3MCGxMU9jSkr3YvO-16" value="" style="endArrow=classic;html=1;exitX=0.5;exitY=1;exitDx=0;exitDy=0;fontFamily=Helvetica;fontSize=18;" parent="1" source="Sy0Z3MCGxMU9jSkr3YvO-4" target="Sy0Z3MCGxMU9jSkr3YvO-8" edge="1">
          <mxGeometry width="50" height="50" relative="1" as="geometry">
            <mxPoint x="860" y="532" as="sourcePoint"/>
            <mxPoint x="470" y="610" as="targetPoint"/>
          </mxGeometry>
        </mxCell>
        <mxCell id="Sy0Z3MCGxMU9jSkr3YvO-17" value="" style="endArrow=classic;html=1;fontFamily=Helvetica;fontSize=18;" parent="1" source="Sy0Z3MCGxMU9jSkr3YvO-4" target="Sy0Z3MCGxMU9jSkr3YvO-9" edge="1">
          <mxGeometry width="50" height="50" relative="1" as="geometry">
            <mxPoint x="870" y="542" as="sourcePoint"/>
            <mxPoint x="480" y="620" as="targetPoint"/>
          </mxGeometry>
        </mxCell>
        <mxCell id="Sy0Z3MCGxMU9jSkr3YvO-18" value="" style="endArrow=classic;html=1;fontFamily=Helvetica;fontSize=18;" parent="1" source="Sy0Z3MCGxMU9jSkr3YvO-4" target="Sy0Z3MCGxMU9jSkr3YvO-10" edge="1">
          <mxGeometry width="50" height="50" relative="1" as="geometry">
            <mxPoint x="880" y="552" as="sourcePoint"/>
            <mxPoint x="490" y="630" as="targetPoint"/>
          </mxGeometry>
        </mxCell>
        <mxCell id="Sy0Z3MCGxMU9jSkr3YvO-28" value="" style="edgeStyle=orthogonalEdgeStyle;rounded=0;orthogonalLoop=1;jettySize=auto;html=1;fontFamily=Helvetica;fontSize=18;" parent="1" source="Sy0Z3MCGxMU9jSkr3YvO-20" target="Sy0Z3MCGxMU9jSkr3YvO-27" edge="1">
          <mxGeometry relative="1" as="geometry"/>
        </mxCell>
        <mxCell id="Sy0Z3MCGxMU9jSkr3YvO-20" value="汇总" style="rounded=0;whiteSpace=wrap;html=1;fillColor=#fad7ac;strokeColor=#b46504;fontFamily=Helvetica;fontSize=18;" parent="1" vertex="1">
          <mxGeometry x="840" y="740" width="120" height="60" as="geometry"/>
        </mxCell>
        <mxCell id="Sy0Z3MCGxMU9jSkr3YvO-30" value="" style="edgeStyle=orthogonalEdgeStyle;rounded=0;orthogonalLoop=1;jettySize=auto;html=1;fontFamily=Helvetica;fontSize=18;" parent="1" source="Sy0Z3MCGxMU9jSkr3YvO-27" target="Sy0Z3MCGxMU9jSkr3YvO-29" edge="1">
          <mxGeometry relative="1" as="geometry"/>
        </mxCell>
        <mxCell id="Sy0Z3MCGxMU9jSkr3YvO-27" value="保存" style="rounded=0;whiteSpace=wrap;html=1;fillColor=#fad7ac;strokeColor=#b46504;fontFamily=Helvetica;fontSize=18;" parent="1" vertex="1">
          <mxGeometry x="840" y="880" width="120" height="60" as="geometry"/>
        </mxCell>
        <mxCell id="Sy0Z3MCGxMU9jSkr3YvO-29" value="返回" style="rounded=0;whiteSpace=wrap;html=1;fillColor=#fad7ac;strokeColor=#b46504;fontFamily=Helvetica;fontSize=18;" parent="1" vertex="1">
          <mxGeometry x="840" y="1020" width="120" height="60" as="geometry"/>
        </mxCell>
        <mxCell id="Sy0Z3MCGxMU9jSkr3YvO-21" value="" style="endArrow=classic;html=1;fontFamily=Helvetica;fontSize=18;" parent="1" source="Sy0Z3MCGxMU9jSkr3YvO-6" target="Sy0Z3MCGxMU9jSkr3YvO-20" edge="1">
          <mxGeometry width="50" height="50" relative="1" as="geometry">
            <mxPoint x="900" y="572" as="sourcePoint"/>
            <mxPoint x="700" y="810" as="targetPoint"/>
          </mxGeometry>
        </mxCell>
        <mxCell id="Sy0Z3MCGxMU9jSkr3YvO-22" value="" style="endArrow=classic;html=1;fontFamily=Helvetica;fontSize=18;" parent="1" source="Sy0Z3MCGxMU9jSkr3YvO-7" target="Sy0Z3MCGxMU9jSkr3YvO-20" edge="1">
          <mxGeometry width="50" height="50" relative="1" as="geometry">
            <mxPoint x="520" y="646" as="sourcePoint"/>
            <mxPoint x="850" y="734" as="targetPoint"/>
          </mxGeometry>
        </mxCell>
        <mxCell id="Sy0Z3MCGxMU9jSkr3YvO-23" value="" style="endArrow=classic;html=1;fontFamily=Helvetica;fontSize=18;" parent="1" source="Sy0Z3MCGxMU9jSkr3YvO-8" target="Sy0Z3MCGxMU9jSkr3YvO-20" edge="1">
          <mxGeometry width="50" height="50" relative="1" as="geometry">
            <mxPoint x="530" y="656" as="sourcePoint"/>
            <mxPoint x="860" y="744" as="targetPoint"/>
          </mxGeometry>
        </mxCell>
        <mxCell id="Sy0Z3MCGxMU9jSkr3YvO-24" value="" style="endArrow=classic;html=1;fontFamily=Helvetica;fontSize=18;" parent="1" source="Sy0Z3MCGxMU9jSkr3YvO-9" target="Sy0Z3MCGxMU9jSkr3YvO-20" edge="1">
          <mxGeometry width="50" height="50" relative="1" as="geometry">
            <mxPoint x="540" y="666" as="sourcePoint"/>
            <mxPoint x="870" y="754" as="targetPoint"/>
          </mxGeometry>
        </mxCell>
        <mxCell id="Sy0Z3MCGxMU9jSkr3YvO-25" value="" style="endArrow=classic;html=1;fontFamily=Helvetica;fontSize=18;" parent="1" source="Sy0Z3MCGxMU9jSkr3YvO-10" target="Sy0Z3MCGxMU9jSkr3YvO-20" edge="1">
          <mxGeometry width="50" height="50" relative="1" as="geometry">
            <mxPoint x="550" y="676" as="sourcePoint"/>
            <mxPoint x="880" y="764" as="targetPoint"/>
          </mxGeometry>
        </mxCell>
      </root>
    </mxGraphModel>
  </diagram>
</mxfile>
